<svg width="56" height="56" viewBox="0 0 56 56" fill="none" xmlns="http://www.w3.org/2000/svg">
<rect width="56" height="56" rx="10" fill="#2D6DCA"/>
<path d="M26.1056 13.0209C25.3856 13.1399 24.805 13.2831 23.8061 13.5884L23.1714 13.7822L23.1629 13.8963C23.1583 13.959 23.1991 14.3464 23.2533 14.7572C23.3441 15.4447 23.3475 15.5077 23.2959 15.5475C23.2652 15.5713 23.0083 15.7187 22.7251 15.8751C22.442 16.0315 22.0699 16.2473 21.8984 16.3547C21.7267 16.4621 21.5634 16.55 21.5352 16.55C21.4887 16.55 20.9273 16.1679 20.3265 15.7276C20.269 15.6854 20.2139 15.6465 20.1697 15.6164C20.1525 15.6046 20.1368 15.5942 20.1233 15.5854C20.1059 15.5742 20.0919 15.5655 20.0822 15.5602C20.0749 15.5561 20.0701 15.5541 20.0681 15.5541C19.8986 15.5541 17.8004 17.5927 17.8004 17.7574C17.8004 17.7811 17.9962 18.0606 18.2355 18.3787C18.4748 18.6968 18.6996 19.0044 18.7352 19.0625C18.7515 19.0893 18.7646 19.1101 18.771 19.1324C18.7945 19.214 18.7296 19.319 18.4122 19.8332L18.3952 19.861C18.2474 20.1003 18.0576 20.4185 17.9733 20.5682C17.889 20.7179 17.7887 20.8601 17.7501 20.8842C17.6913 20.9212 17.5659 20.9155 16.9595 20.8479C16.888 20.8399 16.8219 20.8324 16.7607 20.8255C16.2187 20.7642 16.0629 20.7465 15.9889 20.8134C15.959 20.8404 15.9426 20.8811 15.9193 20.9381L15.919 20.9386L15.9184 20.9398C15.9121 20.9555 15.9054 20.9723 15.8976 20.9904C15.7364 21.3657 15.5363 21.9549 15.4155 22.4097C15.289 22.8855 15.1401 23.6951 15.1668 23.7617C15.184 23.8047 15.8002 24.0815 16.3917 24.3119C16.6843 24.426 16.7187 24.4484 16.744 24.5428C16.7593 24.6003 16.7678 25.0757 16.7628 25.5992L16.754 26.5308C16.1134 26.7509 15.4921 26.988 15.148 27.178C14.6849 27.4338 15.2781 30.3441 17.3582 34.0614L21.0637 29.5167C21.116 29.4524 21.1708 29.3963 21.216 29.3263C21.3922 29.0506 21.3756 28.8997 21.2754 28.6482C21.2613 28.6126 21.2399 28.5755 21.2207 28.5333C20.8324 27.6771 20.6168 26.7309 20.6168 25.7361C20.6168 21.8873 23.8442 18.7673 27.8255 18.7673C28.4332 18.7673 29.0235 18.84 29.5873 18.9769L25.5883 23.4533L26.334 27.178L29.9382 27.5384L34.5089 23.1199C34.8475 23.9277 35.0341 24.8109 35.0341 25.7361C35.0341 29.585 31.8068 32.7051 27.8255 32.7051C27.5536 32.7051 27.285 32.6904 27.021 32.6623C26.5834 32.6155 26.4827 32.5346 26.1725 32.8754C26.1506 32.8995 26.1353 32.9224 26.1109 32.9523L20.9776 39.2487C22.5068 41.0456 24.3627 42.8425 26.5824 44.4802C27.0216 44.8042 27.3639 44.9358 27.6091 44.9816C28.0155 45.0576 28.3667 44.8871 28.7013 44.6767C33.7403 41.0816 37.6234 35.8571 40.2419 30.0617L40.387 29.6471C40.4953 29.3367 40.6383 28.8812 40.7046 28.6346C40.8247 28.1873 40.9958 27.4123 41 27.2986L40.8937 27.1964L41 27.2982V27.2946C41 27.27 40.9724 27.241 40.8937 27.1964L40.8928 27.1959C40.7621 27.1218 40.4924 27.0047 39.9792 26.7934L39.3526 26.5357V25.7195V24.4809L39.5329 24.4058C39.632 24.3645 39.996 24.2121 40.3423 24.0672L40.9721 23.8041L40.9489 23.5717C40.887 22.949 40.4296 21.3067 40.1979 20.8741C40.183 20.8461 40.1723 20.8241 40.1556 20.8077C40.0952 20.7485 39.9568 20.7638 39.2516 20.8415L38.4431 20.9308L38.3347 20.8133C38.2752 20.7488 38.1685 20.5884 38.0975 20.4572C38.0266 20.3259 37.8325 20.0007 37.6665 19.7346C37.5004 19.4684 37.3546 19.2258 37.3424 19.1951C37.3271 19.1565 37.4351 18.9896 37.6956 18.6498C38.0673 18.1647 38.2914 17.8635 38.3344 17.7903C38.4031 17.6739 36.7509 16.0096 36.2 15.6402L36.0626 15.5481L35.2675 16.1172C34.7345 16.499 34.6439 16.5637 34.5802 16.5448C34.5617 16.5393 34.5456 16.5267 34.5215 16.5128C34.47 16.4833 34.2273 16.3404 33.9819 16.1954C33.7365 16.0503 33.3695 15.8459 33.1666 15.7411C32.9121 15.6096 32.7978 15.5324 32.7978 15.492C32.7978 15.4599 32.8198 15.2701 32.8468 15.0704C32.9447 14.3481 32.9766 13.8926 32.9326 13.8413C32.7962 13.6823 31.4442 13.2919 30.2318 13.0615C30.019 13.021 29.8406 12.994 29.8354 13.0012C29.8052 13.0434 29.1599 14.5302 29.1599 14.5578C29.1599 14.5905 28.3595 14.5995 27.7409 14.5885C27.377 14.582 27.0758 14.5686 27.0381 14.5492C26.9819 14.5203 26.9045 14.3843 26.7759 14.0886C26.6416 13.7802 26.5206 13.5178 26.4262 13.3281C26.3225 13.12 26.251 12.9996 26.2292 13.0021C26.2085 13.0047 26.1528 13.0131 26.1056 13.0209Z" fill="#F2F3F4"/>
</svg>
