<svg width="20" height="20" viewBox="0 0 20 20" fill="none" xmlns="http://www.w3.org/2000/svg">
<path fill-rule="evenodd" clip-rule="evenodd" d="M20 10C20 14.714 20 17.0711 18.5355 18.5355C17.0711 20 14.714 20 10 20C5.28595 20 2.92893 20 1.46447 18.5355C0 17.0711 0 14.714 0 10C0 5.28595 0 2.92893 1.46447 1.46447C2.92893 0 5.28595 0 10 0C14.714 0 17.0711 0 18.5355 1.46447C20 2.92893 20 5.28595 20 10ZM15.4545 4.90343C15.784 5.15446 15.8476 5.62505 15.5966 5.95453L8.73943 14.9545C8.60289 15.1337 8.39301 15.2421 8.16784 15.2496C7.94266 15.2571 7.72604 15.163 7.57787 14.9932L4.43501 11.3932C4.1626 11.0812 4.19472 10.6074 4.50676 10.335C4.81879 10.0626 5.29258 10.0947 5.56499 10.4068L8.10334 13.3143L14.4034 5.04547C14.6545 4.71599 15.1251 4.65239 15.4545 4.90343Z" fill="#30B28C"/>
</svg>
